<?xml version="1.0" encoding="UTF-8"?>
<svg version="1.1" xmlns="http://www.w3.org/2000/svg" width="581" height="581">
<path d="M0 0 C1.21440828 -0.00110464 1.21440828 -0.00110464 2.45335007 -0.0022316 C28.41109994 -0.02145757 54.16247832 0.53278758 80 3.25 C81.15773926 3.36746582 82.31547852 3.48493164 83.50830078 3.60595703 C90.36639025 4.32166529 97.18030882 5.23626212 104 6.25 C105.20172852 6.42257324 106.40345703 6.59514648 107.64160156 6.77294922 C126.60616766 9.50944701 145.32870584 12.90061809 164 17.25 C165.14919922 17.51538574 166.29839844 17.78077148 167.48242188 18.05419922 C189.90527211 23.2847386 211.7996133 30.05745963 233.38671875 38.05859375 C236.09378972 38.95119553 238.60296076 39.62910963 241.375 40.20703125 C246.20048266 41.2388987 250.72440084 42.69104431 255.3125 44.5 C256.4890918 44.88285156 256.4890918 44.88285156 257.68945312 45.2734375 C261.5720705 46.8436379 263.50722891 48.19333811 265.3059082 52.05029297 C266.41195002 55.75200597 267.25044803 59.46456827 268 63.25 C268.29977966 64.64682251 268.60115964 66.04330243 268.90405273 67.43945312 C269.85291284 71.9063892 270.7138332 76.38811354 271.5625 80.875 C271.71407562 81.66713898 271.86565125 82.45927795 272.02182007 83.27542114 C274.97456301 98.71250362 277.56571907 114.10362206 279.125 129.75 C279.20081299 130.50788818 279.27662598 131.26577637 279.35473633 132.04663086 C280.9783782 149.81843009 281.16022428 167.60659733 281.13037109 185.44042969 C281.1250082 189.24418115 281.13035142 193.04781458 281.13671875 196.8515625 C281.14267803 215.17827101 280.75462829 233.39488796 278.75 251.625 C278.62141602 252.79506592 278.49283203 253.96513184 278.36035156 255.1706543 C276.1897597 274.04552962 272.92380088 292.73871286 268.88806152 311.29940796 C268.59034567 312.67088917 268.29688883 314.04330262 268.00793457 315.41665649 C267.60306834 317.32544994 267.17505001 319.22928798 266.74609375 321.1328125 C266.50560303 322.21965332 266.2651123 323.30649414 266.01733398 324.42626953 C264.47392543 328.71018201 262.39802684 330.58360551 258.32128906 332.52685547 C257.31291992 332.88666504 256.30455078 333.24647461 255.265625 333.6171875 C254.1430127 334.02461182 253.02040039 334.43203613 251.86376953 334.85180664 C250.67122559 335.27196045 249.47868164 335.69211426 248.25 336.125 C245.77328199 337.01649518 243.29671841 337.9084195 240.8203125 338.80078125 C239.63083008 339.22568848 238.44134766 339.6505957 237.21582031 340.08837891 C234.68937112 341.00098483 232.17973486 341.93629763 229.6796875 342.91796875 C175.27144557 364.26274058 116.13681001 373.88154507 58.08544922 378.09570312 C56.05637242 378.24582915 54.02816249 378.4044332 52 378.56640625 C-26.04819991 384.73221404 -107.78099933 378.17902016 -197 353.25 C-198.6713501 352.76998535 -198.6713501 352.76998535 -200.37646484 352.28027344 C-211.55620735 349.05650806 -222.52899031 345.54791995 -233.2890625 341.109375 C-236.8424813 339.65830542 -240.43202048 338.44005776 -244.0859375 337.265625 C-245.12878906 336.91032715 -246.17164063 336.5550293 -247.24609375 336.18896484 C-249.27956367 335.49749622 -251.32661676 334.84435945 -253.38671875 334.23681641 C-257.65949856 332.73203555 -260.27062656 331.62701953 -262.44238281 327.52685547 C-263.53315852 324.12011264 -264.30708975 320.75872846 -265 317.25 C-265.25958496 316.14865723 -265.51916992 315.04731445 -265.78662109 313.91259766 C-266.58408355 310.49339584 -267.30307049 307.066045 -268 303.625 C-268.25563721 302.36937256 -268.51127441 301.11374512 -268.7746582 299.82006836 C-273.296368 277.13186676 -275.99368577 254.28156794 -278 231.25 C-278.09716309 230.25129883 -278.19432617 229.25259766 -278.29443359 228.22363281 C-279.40803155 215.39226538 -279.24211469 202.494132 -279.25 189.625 C-279.25133942 188.33776031 -279.25267883 187.05052063 -279.25405884 185.72427368 C-279.24933332 164.74998005 -278.48794226 144.07662622 -276 123.25 C-275.88253418 122.24018066 -275.76506836 121.23036133 -275.64404297 120.18994141 C-274.92286518 114.18012646 -274.01308208 108.21688174 -273 102.25 C-272.82210938 101.17878906 -272.64421875 100.10757813 -272.4609375 99.00390625 C-270.40501558 86.70949317 -268.19534053 74.4570115 -265.375 62.3125 C-265.18115723 61.46107422 -264.98731445 60.60964844 -264.78759766 59.73242188 C-262.77849103 51.42380479 -262.77849103 51.42380479 -260 48.25 C-257.07568215 46.54179922 -254.02214631 45.3006028 -250.875 44.0625 C-250.05773437 43.72025391 -249.24046875 43.37800781 -248.3984375 43.02539062 C-243.70159771 41.11172568 -239.14042444 39.75276005 -234.17626953 38.74487305 C-230.50092372 37.90911739 -227.02922547 36.55696652 -223.5 35.25 C-197.4810683 25.95413395 -171.02801245 18.89802129 -144 13.25 C-142.8337207 13.00411133 -141.66744141 12.75822266 -140.46582031 12.50488281 C-112.77953352 6.76454355 -84.28472468 3.16617744 -56.06396484 1.43847656 C-53.88622374 1.30451512 -51.70949346 1.15365284 -49.53369141 0.99121094 C-33.05453342 -0.16464986 -16.5110581 0.00686826 0 0 Z M-58 36.25 C-58.93070313 36.38341797 -59.86140625 36.51683594 -60.8203125 36.65429688 C-64.84390338 37.2437588 -68.85611361 37.87825172 -72.86328125 38.5703125 C-76.27524901 39.15266847 -79.68543681 39.5854742 -83.12524414 39.96508789 C-121.01506774 44.1791801 -166.61033423 61.04103382 -195 87.25 C-195 87.91 -195 88.57 -195 89.25 C-196.32416156 89.93470313 -197.65986503 90.59711373 -199 91.25 C-205.01877062 95.93841847 -210.19310003 101.39619896 -215.125 107.1875 C-215.6104126 107.75509033 -216.0958252 108.32268066 -216.59594727 108.9074707 C-219.1857067 111.70379958 -219.1857067 111.70379958 -220 115.25 C-219.0713916 115.1557373 -218.1427832 115.06147461 -217.18603516 114.96435547 C-213.74378574 114.65769724 -210.31582595 114.43254183 -206.86523438 114.26123047 C-205.37300967 114.17048707 -203.88239747 114.04742194 -202.39550781 113.89208984 C-197.59954785 113.40355331 -193.50562805 113.21861488 -189 115.25 C-186.97752474 120.1813774 -187.1839181 125.02908843 -187.12286377 130.30462646 C-186.89387602 135.79407594 -185.92327279 141.18322216 -185.0546875 146.6015625 C-184.69532037 148.95813634 -184.33726085 151.31490992 -183.98046875 153.671875 C-183.61205828 156.07292881 -183.24356776 158.47397033 -182.875 160.875 C-182.49836784 163.34630388 -182.12206347 165.81765775 -181.74609375 168.2890625 C-180.83450096 174.27662214 -179.91888821 180.26355585 -179 186.25 C-175.6021332 183.14212081 -174.25542438 179.49699304 -172.6015625 175.28515625 C-172.28472504 174.49660751 -171.96788757 173.70805878 -171.64144897 172.89561462 C-170.62871099 170.3707414 -169.62660152 167.84180895 -168.625 165.3125 C-167.95905831 163.6448926 -167.2923988 161.97757166 -166.625 160.31054688 C-165.64923256 157.8726902 -164.67385026 155.43469069 -163.70085144 152.99572754 C-156.38870402 134.674874 -156.38870402 134.674874 -152.92407227 128.24389648 C-151.91433785 126.22293688 -151.91433785 126.22293688 -151.37084961 123.80493164 C-150.2102268 119.63370925 -149.26846328 116.9904692 -145.43041992 114.75 C-138.98378536 112.66433915 -132.26640152 111.92267594 -125.65136719 113.57080078 C-122.06892148 115.83968306 -121.16884338 118.41707001 -120.1953125 122.37109375 C-118.52011307 130.51335136 -117.9915701 138.86889869 -117.4140625 147.14746094 C-116.89963641 154.11826424 -115.76864222 160.97112171 -114.58947754 167.85522461 C-114.25472126 169.8469101 -113.94535101 171.84096963 -113.64355469 173.83789062 C-113.45696289 175.03865234 -113.27037109 176.23941406 -113.078125 177.4765625 C-112.91731445 178.52408691 -112.75650391 179.57161133 -112.59082031 180.65087891 C-112.11321728 183.46634834 -112.11321728 183.46634834 -110 186.25 C-109.69707031 185.45078125 -109.39414063 184.6515625 -109.08203125 183.828125 C-108.66308594 182.72984375 -108.24414062 181.6315625 -107.8125 180.5 C-107.40644531 179.43265625 -107.00039062 178.3653125 -106.58203125 177.265625 C-104.92400983 172.99950512 -103.15170213 168.78208137 -101.38500977 164.56005859 C-95.60894298 150.75573752 -89.85923244 136.9355399 -84.25 123.0625 C-83.80140625 121.95519531 -83.3528125 120.84789062 -82.890625 119.70703125 C-81.88640573 117.37219733 -81.88640573 117.37219733 -82 115.25 C-71.77 115.58 -61.54 115.91 -51 116.25 C-55.3125 127.625 -55.3125 127.625 -56.65356445 131.14599609 C-57.011521 132.09555176 -57.36947754 133.04510742 -57.73828125 134.0234375 C-58.09962158 134.97653809 -58.46096191 135.92963867 -58.83325195 136.91162109 C-60.37005314 141.30882122 -61.66152853 145.78842843 -63 150.25 C-43.86 150.25 -24.72 150.25 -5 150.25 C-6.32 155.53 -7.64 160.81 -9 166.25 C-9.68295686 169.42741883 -10.34527268 172.59101684 -10.953125 175.78125 C-11.28543681 177.48184327 -11.61813595 179.18236089 -11.95117188 180.8828125 C-12.12092529 181.75518555 -12.29067871 182.62755859 -12.46557617 183.52636719 C-13.40702001 188.32433312 -14.38611367 193.11465795 -15.359375 197.90625 C-15.95588108 200.85908342 -16.55148773 203.81209722 -17.14697266 206.76513672 C-17.55483213 208.78395858 -17.96404927 210.80250655 -18.37451172 212.82080078 C-18.97722431 215.78607099 -19.57503307 218.75229337 -20.171875 221.71875 C-20.44834869 223.07015076 -20.44834869 223.07015076 -20.73040771 224.44885254 C-20.98132172 225.70296936 -20.98132172 225.70296936 -21.23730469 226.98242188 C-21.3851239 227.7126355 -21.53294312 228.44284912 -21.6852417 229.19519043 C-22.10094341 231.56251729 -22.10094341 231.56251729 -22 235.25 C-9.42896534 236.94133121 -9.42896534 236.94133121 3 235.25 C7.116838 231.43399825 7.15432934 225.52318995 7.62866211 220.23974609 C8.468442 213.47844136 10.36974223 206.85729834 12 200.25 C12.47756712 198.29510946 12.95467529 196.34010676 13.43139648 194.38500977 C14.76824322 188.91071374 16.11288651 183.43836156 17.45962524 177.9664917 C18.90280802 172.10070535 20.34181685 166.23389489 21.78125 160.3671875 C22.33984121 158.09081969 22.89843489 155.81445248 23.45703125 153.53808594 C23.71967773 152.46764038 23.98232422 151.39719482 24.25292969 150.29431152 C24.72478421 148.37150436 25.19677171 146.44872981 25.66894531 144.52600098 C26.88835749 139.5601816 28.10250891 134.59312339 29.3125 129.625 C29.59585205 128.47290039 29.8792041 127.32080078 30.17114258 126.13378906 C30.54468872 124.59416504 30.54468872 124.59416504 30.92578125 123.0234375 C31.13630127 122.16153809 31.34682129 121.29963867 31.5637207 120.41162109 C32.09892018 118.12741766 32.09892018 118.12741766 32 115.25 C41.9 115.25 51.8 115.25 62 115.25 C61.24203125 118.66279297 61.24203125 118.66279297 60.46875 122.14453125 C59.98150335 124.34854829 59.49533818 126.55280127 59.00927734 128.75708008 C58.67089031 130.28890592 58.33137949 131.82048397 57.99072266 133.35180664 C57.50127241 135.55290577 57.01587027 137.75486435 56.53125 139.95703125 C56.37813354 140.64150833 56.22501709 141.32598541 56.06726074 142.03120422 C55.45223989 144.84173374 55 147.3621443 55 150.25 C60.03132292 151.09526225 65.06261384 151.81170982 70 150.25 C73.84851951 146.73135359 76.22648051 142.76245178 78.79980469 138.26513672 C80.79411159 134.91668083 83.12773733 131.82256951 85.4375 128.6875 C90.62114344 122.49270482 90.62114344 122.49270482 93 115.25 C103.56 115.25 114.12 115.25 125 115.25 C121.1262385 122.09825694 117.24604427 128.92199533 113.125 135.625 C112.15433594 137.20474609 112.15433594 137.20474609 111.1640625 138.81640625 C109.58150729 141.35761034 107.9382847 143.85185433 106.2734375 146.33984375 C105.81308105 147.04125488 105.35272461 147.74266602 104.87841797 148.46533203 C103.983682 149.82661116 103.07456645 151.17858682 102.14892578 152.51904297 C101.73884277 153.1482666 101.32875977 153.77749023 100.90625 154.42578125 C100.53822266 154.97145752 100.17019531 155.51713379 99.79101562 156.0793457 C97.34640325 162.78769405 99.51650296 171.19463887 100.4609375 178.0625 C100.61156647 179.18962402 100.76219543 180.31674805 100.91738892 181.47802734 C101.39834514 185.06936564 101.88644343 188.65968852 102.375 192.25 C102.85369705 195.8034794 103.33093684 199.35714551 103.80630493 202.91107178 C104.11556378 205.20431895 104.43008591 207.49686301 104.75009155 209.78863525 C105.42542346 214.66499829 106.05864704 219.51300911 106.40478516 224.42480469 C106.46606598 225.17697266 106.5273468 225.92914063 106.59048462 226.70410156 C106.73707337 228.62728311 106.84316171 230.55343904 106.9453125 232.47949219 C107.29335938 233.39375977 107.64140625 234.30802734 108 235.25 C113.04682265 237.41915271 116.84640838 238.11472224 122.109375 236.38476562 C128.00617802 232.84546546 129.44717743 224.04205454 131.22802734 217.87402344 C132.28018924 214.2976047 133.59277506 210.84925212 134.9375 207.375 C135.41557553 206.08601572 135.89343344 204.79695071 136.37109375 203.5078125 C138.30665879 198.37825792 140.40892276 193.31765507 142.5 188.25 C145.2974622 181.46708858 148.01357377 174.67600159 150.55078125 167.79125977 C153.10753783 160.88715322 155.80531754 154.03869346 158.5 147.1875 C158.97783936 145.97118896 159.45567871 144.75487793 159.94799805 143.50170898 C161.95697562 138.39799797 163.97088019 133.29721235 166.04296875 128.21875 C166.32785156 127.51886963 166.61273438 126.81898926 166.90625 126.09790039 C167.62385194 124.3431394 168.34868622 122.5913406 169.07421875 120.83984375 C170.16830315 118.237567 170.16830315 118.237567 170 115.25 C192.5785705 111.65444324 192.5785705 111.65444324 202 115.25 C206.61077443 121.53355049 205.41744604 130.67186922 205.13583374 138.1592865 C204.88997033 144.75855195 205.74363725 150.98874077 206.8125 157.5 C207.15719596 159.86611325 207.4939231 162.23339612 207.82421875 164.6015625 C207.9585733 165.56076851 207.9585733 165.56076851 208.09564209 166.53935242 C209.88011676 179.44542683 211.35404463 192.39596015 212.89379883 205.33300781 C213.14010213 207.38086353 213.38643863 209.42871527 213.6328125 211.4765625 C213.74103836 212.39956146 213.84926422 213.32256042 213.96076965 214.27352905 C214.28236724 216.93624404 214.63770833 219.5925438 215 222.25 C215.17836647 223.76364891 215.17836647 223.76364891 215.3603363 225.30787659 C215.49996292 226.30222214 215.63958954 227.29656769 215.78344727 228.32104492 C215.90067642 229.22578049 216.01790558 230.13051605 216.13868713 231.06266785 C216.80397446 233.47731168 216.80397446 233.47731168 219.30987549 234.36721802 C222.22574495 234.96781388 224.83707313 235.03109669 227.8125 234.9375 C228.82610596 234.91534424 229.83971191 234.89318848 230.8840332 234.87036133 C233.79802115 234.62942691 236.25118604 234.24583123 239 233.25 C242.53485505 229.03061746 243.12820062 225.01581743 243.72167969 219.63671875 C243.99877417 217.26051201 244.42772003 214.96657554 244.9140625 212.625 C251.22645584 180.92017387 244.6498138 146.40584766 227 119.25 C224.01707457 115.24047747 220.76144627 111.50721151 217.37109375 107.83984375 C215 105.25 215 105.25 214 103.25 C213.34 103.25 212.68 103.25 212 103.25 C211.67 102.26 211.34 101.27 211 100.25 C210.34 100.25 209.68 100.25 209 100.25 C209 99.59 209 98.93 209 98.25 C208.34 98.25 207.68 98.25 207 98.25 C206.67 97.26 206.34 96.27 206 95.25 C205.34 95.25 204.68 95.25 204 95.25 C203.67 94.26 203.34 93.27 203 92.25 C201.62576848 90.8407809 201.62576848 90.8407809 199.91015625 89.55078125 C198.98106445 88.82084961 198.98106445 88.82084961 198.03320312 88.07617188 C197.38287109 87.57666016 196.73253906 87.07714844 196.0625 86.5625 C195.41603516 86.05138672 194.76957031 85.54027344 194.10351562 85.01367188 C190.92359995 82.22115145 190.92359995 82.22115145 187 81.25 C187 80.59 187 79.93 187 79.25 C185.38053231 78.28521074 183.75265457 77.33278183 182.09375 76.4375 C179.97934823 75.23828706 178.04600769 73.90371314 176.0625 72.5 C169.42311004 68.03635608 162.20607848 64.68100223 155 61.25 C153.96939453 60.75064941 153.96939453 60.75064941 152.91796875 60.24121094 C129.2739907 48.85336275 102.96404077 40.68271612 76.74609375 38.70703125 C72.38135748 38.34889904 68.14867075 37.58101988 63.84838867 36.76928711 C24.7201302 29.63585043 -18.74139517 30.53348773 -58 36.25 Z M-236.37890625 141.74609375 C-236.9658429 143.22980774 -237.505673 144.7329164 -238 146.25 C-238.36266968 147.31335571 -238.36266968 147.31335571 -238.73266602 148.39819336 C-239.43677927 150.62658187 -240.04550395 152.86109892 -240.625 155.125 C-240.83664795 155.94291016 -241.0482959 156.76082031 -241.26635742 157.60351562 C-244.19894751 169.48432368 -245.73408082 182.01000029 -245 194.25 C-244.96422852 194.89952637 -244.92845703 195.54905273 -244.89160156 196.21826172 C-243.85223384 213.18575011 -239.98241063 230.1427931 -232 245.25 C-231.35018695 246.50907667 -230.70045365 247.7681945 -230.05078125 249.02734375 C-225.46450415 257.90392217 -225.46450415 257.90392217 -220 266.25 C-219.34 266.25 -218.68 266.25 -218 266.25 C-217.30224813 267.56733236 -216.64099895 268.90413873 -216 270.25 C-204.6378123 285.12353434 -189.87088484 296.60299157 -174 306.25 C-173.23816406 306.73855469 -172.47632813 307.22710937 -171.69140625 307.73046875 C-157.51799564 316.64561573 -141.70708735 322.6428298 -126 328.25 C-125.08589355 328.5792749 -124.17178711 328.9085498 -123.22998047 329.24780273 C-115.19874216 332.04265213 -107.04953192 333.99643851 -98.75 335.8125 C-97.35796856 336.12066447 -95.96596028 336.42893356 -94.57397461 336.73730469 C-90.71867826 337.58765397 -86.8600666 338.42157405 -83 339.25 C-81.71343506 339.527229 -81.71343506 339.527229 -80.40087891 339.81005859 C-71.98958151 341.59252139 -63.52277685 342.77511587 -55 343.875 C-54.05068604 343.99842773 -53.10137207 344.12185547 -52.12329102 344.24902344 C-35.68023485 346.26650777 -19.30438589 346.43638122 -2.75830078 346.43530273 C0.96463637 346.43747932 4.68727159 346.45566778 8.41015625 346.47460938 C62.88948168 346.6026377 123.62904381 338.06238838 171 309.25 C171.97839844 308.66734375 172.95679688 308.0846875 173.96484375 307.484375 C179.84968296 303.92968021 185.62710777 300.23955982 191.3125 296.375 C192.40175781 295.63507813 193.49101562 294.89515625 194.61328125 294.1328125 C195.40089844 293.51148438 196.18851562 292.89015625 197 292.25 C197 291.59 197 290.93 197 290.25 C198.33333333 289.58333333 199.66666667 288.91666667 201 288.25 C203.14112405 286.68854612 205.03025863 285.04067397 207 283.25 C207 282.59 207 281.93 207 281.25 C207.66 281.25 208.32 281.25 209 281.25 C209 280.59 209 279.93 209 279.25 C209.99 278.92 210.98 278.59 212 278.25 C221.83021566 268.38330441 221.83021566 268.38330441 227 256.25 C225.09939819 256.35997314 225.09939819 256.35997314 223.16040039 256.47216797 C218.47852991 256.72473697 213.79726007 256.88593151 209.1105957 257.01904297 C207.07929481 257.08965447 205.04871054 257.1853572 203.01977539 257.30615234 C189.47623848 258.09252994 189.47623848 258.09252994 185 256.25 C182.64184227 251.59951546 183.38318064 247.30942403 184 242.25 C184.09383212 238.55506165 183.88823866 237.60911984 182 234.25 C177.97762919 232.86994271 174.13690394 232.55321912 169.8984375 232.49291992 C167.89800961 232.43813021 165.90388184 232.22658647 163.9140625 232.01367188 C159.4440113 231.90282546 156.90394373 232.00358669 153 234.25 C151.96912754 236.71033656 151.43351792 239.13752054 150.85015869 241.73936462 C149.69306331 246.85311978 148.60856104 251.30864785 145 255.25 C136.0012813 259.09829109 125.50485177 258.56345701 115.88085938 258.41503906 C111.89411636 258.35544358 107.93922668 258.48774154 103.95711803 258.66867924 C85.84434228 259.41413263 85.84434228 259.41413263 78 256.25 C74.87083021 252.84358294 75.084143 249.11064943 75.26835632 244.68635559 C75.43034916 242.64345356 75.6141943 240.60220419 75.81616211 238.56286621 C76.14876203 232.56922137 75.13779638 226.72579867 74.30859375 220.80078125 C73.99650015 218.28110963 73.68859113 215.76091634 73.38476562 213.24023438 C73.22919189 211.98041748 73.07361816 210.72060059 72.91333008 209.42260742 C72.43016847 205.50302396 71.95414797 201.58261286 71.47851562 197.66210938 C71.17229881 195.16661463 70.86567403 192.67116989 70.55859375 190.17578125 C70.41691269 189.00517654 70.27523163 187.83457184 70.1292572 186.62849426 C69.99564285 185.55524399 69.8620285 184.48199371 69.72436523 183.3762207 C69.60826401 182.43140335 69.49216278 181.486586 69.37254333 180.51313782 C69.11042132 178.22418006 69.11042132 178.22418006 68 176.25 C64.71581656 175.7524598 61.37983727 175.87956619 58.0625 175.875 C57.12986328 175.85050781 56.19722656 175.82601562 55.23632812 175.80078125 C54.34494141 175.79691406 53.45355469 175.79304688 52.53515625 175.7890625 C51.714104 175.78084473 50.89305176 175.77262695 50.04711914 175.76416016 C47.85359765 176.04390648 47.85359765 176.04390648 46.78442383 178.00439453 C46.01225772 180.21490927 45.40770717 182.35177692 44.9140625 184.640625 C44.71119629 185.55521484 44.50833008 186.46980469 44.29931641 187.41210938 C44.07679199 188.43111328 43.85426758 189.45011719 43.625 190.5 C40.04138512 206.5152489 35.98649128 222.4119116 31.96337891 238.32128906 C31.57206787 239.87405548 31.57206787 239.87405548 31.17285156 241.45819092 C30.6760887 243.42913914 30.17730568 245.39957956 29.67626953 247.3694458 C29.3446582 248.68607208 29.3446582 248.68607208 29.00634766 250.02929688 C28.81126617 250.79914917 28.61618469 251.56900146 28.41519165 252.36218262 C27.92840049 254.25339692 27.92840049 254.25339692 28 256.25 C-0.71 256.25 -29.42 256.25 -59 256.25 C-57.68 250.97 -56.36 245.69 -55 240.25 C-53.83269328 235.06632252 -52.68155166 229.8814822 -51.5625 224.6875 C-51.26108554 223.29545242 -50.95948765 221.90344455 -50.65771484 220.51147461 C-50.20362718 218.41659927 -49.74976535 216.32167765 -49.29699707 214.22651672 C-48.37039995 209.94190069 -47.42768812 205.66120377 -46.47265625 201.3828125 C-46.24312256 200.34842041 -46.01358887 199.31402832 -45.77709961 198.24829102 C-45.35824438 196.36257999 -44.93615589 194.47758262 -44.51000977 192.59350586 C-43.30882791 187.15157561 -42.52637491 181.79933545 -42 176.25 C-58.25503297 172.56696452 -58.25503297 172.56696452 -74 176.25 C-82.09855621 184.5091444 -84.57937432 198.51788742 -87.54443359 209.3203125 C-89.32647179 215.63116163 -91.86876706 221.57630429 -94.44506836 227.5949707 C-96.23436425 231.80089766 -97.79491382 236.04480379 -99.25 240.375 C-99.92921576 242.37448909 -100.61346614 244.37002937 -101.33007812 246.35644531 C-101.78625052 247.64583057 -102.20563606 248.94868753 -102.59179688 250.26074219 C-103.234375 252.1796875 -103.234375 252.1796875 -105 255.25 C-107.60357313 255.99631219 -109.35125903 256.16550396 -112 256.25 C-113.79746104 256.51295181 -115.59429537 256.78020832 -117.390625 257.05078125 C-119.3431218 257.22840057 -121.29628433 257.39883121 -123.25 257.5625 C-124.24257812 257.72556641 -125.23515625 257.88863281 -126.2578125 258.05664062 C-129.66744774 258.27147537 -131.20576584 258.26403403 -134 256.25 C-135.84753098 250.65120979 -136.28299111 245.06325155 -136.7434082 239.20706177 C-137.16722202 234.32286963 -137.88879331 229.48255323 -138.5703125 224.62890625 C-138.83159749 222.66630335 -139.09070474 220.70340933 -139.34765625 218.74023438 C-139.47543457 217.76658936 -139.60321289 216.79294434 -139.73486328 215.78979492 C-139.8636084 214.8072876 -139.99235352 213.82478027 -140.125 212.8125 C-140.64652274 208.83438045 -141.17027493 204.85656324 -141.6953125 200.87890625 C-141.81198273 199.9831337 -141.92865295 199.08736115 -142.04885864 198.16444397 C-142.57741663 194.16071007 -143.12979883 190.19738279 -144 186.25 C-146.35209951 188.60209951 -147.1432399 190.62493855 -148.43359375 193.69140625 C-148.91231934 194.82046387 -149.39104492 195.94952148 -149.88427734 197.11279297 C-150.26383575 198.01695953 -150.26383575 198.01695953 -150.65106201 198.93939209 C-151.98809387 202.12388342 -153.3407815 205.30172465 -154.69140625 208.48046875 C-154.96682251 209.12985413 -155.24223877 209.7792395 -155.52600098 210.44830322 C-157.33296071 214.70276624 -159.16836102 218.94370712 -161.02734375 223.17578125 C-161.50171875 224.25657959 -161.97609375 225.33737793 -162.46484375 226.45092773 C-163.39946767 228.55464061 -164.34856162 230.6519885 -165.3125 232.74243164 C-167.30334095 237.09810521 -169.12093365 241.16712961 -170.03515625 245.8828125 C-171.02442235 250.12252434 -172.05729642 252.0761184 -175 255.25 C-178.06225586 256.10107422 -178.06225586 256.10107422 -181.58984375 256.3046875 C-182.85127197 256.38138672 -184.1127002 256.45808594 -185.41235352 256.53710938 C-191.29030093 256.66748095 -197.1292154 256.53288341 -203 256.25 C-203.04943756 255.35335632 -203.09887512 254.45671265 -203.14981079 253.53289795 C-203.72175494 244.03535858 -204.72446745 234.63654438 -205.9609375 225.203125 C-206.15456605 223.69746744 -206.34772059 222.19174886 -206.54043579 220.68597412 C-207.04507783 216.75045453 -207.55468617 212.81559675 -208.06585693 208.88092041 C-208.97423193 201.88490849 -209.87501855 194.88792149 -210.7734375 187.890625 C-210.87035637 187.13771683 -210.96727524 186.38480865 -211.06713104 185.60908508 C-212.52923412 174.23334167 -213.87531584 162.85069036 -215.0809021 151.44439697 C-215.18907257 150.42988464 -215.29724304 149.41537231 -215.40869141 148.37011719 C-215.49970123 147.49587097 -215.59071106 146.62162476 -215.68447876 145.72088623 C-215.78860077 144.90549377 -215.89272278 144.09010132 -216 143.25 C-216.10138275 142.33526917 -216.2027655 141.42053833 -216.30722046 140.47808838 C-216.53583771 139.74281921 -216.76445496 139.00755005 -217 138.25 C-220.00859725 137.62014489 -222.29145516 137.41515867 -225.3125 137.4375 C-226.08529297 137.39302734 -226.85808594 137.34855469 -227.65429688 137.30273438 C-232.06849157 137.28375675 -234.25306727 137.70479572 -236.37890625 141.74609375 Z M175 183.25 C171.9543686 188.9247662 169.53264613 194.7347866 167.25 200.75 C166.93417969 201.57242188 166.61835938 202.39484375 166.29296875 203.2421875 C165.52505493 205.24341746 164.76200948 207.24651441 164 209.25 C168.95 209.25 173.9 209.25 179 209.25 C178.36333805 200.5489533 177.62493014 191.83166228 176 183.25 C175.67 183.25 175.34 183.25 175 183.25 Z " fill="#04A3E9" transform="translate(287,103.75)"/>
<path d="M0 0 C-0.30961194 2.05753095 -0.62119558 4.11476525 -0.93359375 6.171875 C-1.19354126 7.89035645 -1.19354126 7.89035645 -1.45874023 9.64355469 C-3.34585032 21.34585032 -3.34585032 21.34585032 -5 23 C-7.07262076 23.08767112 -9.14820294 23.10695873 -11.22265625 23.09765625 C-12.48271484 23.09443359 -13.74277344 23.09121094 -15.04101562 23.08789062 C-16.38151109 23.07953403 -17.72200588 23.07106907 -19.0625 23.0625 C-20.40689942 23.0574866 -21.7513006 23.05292342 -23.09570312 23.04882812 C-26.39717941 23.03699488 -29.69856803 23.02050971 -33 23 C-32.84144531 21.845 -32.68289063 20.69 -32.51953125 19.5 C-32.14072468 16.61215694 -31.98538264 13.84728392 -32.01171875 10.9375 C-31.4680633 4.33503383 -31.4680633 4.33503383 -29.70263672 1.34326172 C-22.8665855 -4.04990631 -8.11570042 -0.77062796 0 0 Z " fill="#0FA7E9" transform="translate(290,219)"/>
</svg>
